{
  "accessors": [
    {
      "bufferView": 2,
      "componentType": 5126,
      "count": 928,
      "max": [
        5.937049865722656,
        2.3299291133880615,
        8.529524803161621
      ],
      "min": [
        0.9828299880027771,
        -2.563843011856079,
        -9.999999974752427e-07
      ],
      "type": "VEC3"
    },
    {
      "bufferView": 2,
      "byteOffset": 11136,
      "componentType": 5126,
      "count": 928,
      "max": [
        1.0,
        0.9876521229743958,
        1.0
      ],
      "min": [
        -1.0,
        -0.9876523613929749,
        -1.0
      ],
      "type": "VEC3"
    },
    {
      "bufferView": 3,
      "componentType": 5126,
      "count": 928,
      "max": [
        1.0,
        0.9999100565910339,
        1.0,
        1.0
      ],
      "min": [
        -0.9999779462814331,
        -0.9999997615814209,
        -1.0,
        -1.0
      ],
      "type": "VEC4"
    },
    {
      "bufferView": 1,
      "componentType": 5126,
      "count": 928,
      "max": [
        0.902845025062561,
        0.9904969930648804
      ],
      "min": [
        0.016397999599575996,
        0.010015999898314476
      ],
      "type": "VEC2"
    },
    {
      "bufferView": 0,
      "componentType": 5125,
      "count": 2628,
      "type": "SCALAR"
    },
    {
      "bufferView": 2,
      "byteOffset": 22272,
      "componentType": 5126,
      "count": 1299,
      "max": [
        12.736288070678711,
        3.3966639041900635,
        4.6983160972595215
      ],
      "min": [
        7.245175838470459,
        -4.5993452072143555,
        -0.6615700125694275
      ],
      "type": "VEC3"
    },
    {
      "bufferView": 2,
      "byteOffset": 37860,
      "componentType": 5126,
      "count": 1299,
      "max": [
        0.9997330904006958,
        0.9991076588630676,
        0.9978703856468201
      ],
      "min": [
        -0.9994748830795288,
        -0.9991076588630676,
        -0.9998401403427124
      ],
      "type": "VEC3"
    },
    {
      "bufferView": 3,
      "byteOffset": 14848,
      "componentType": 5126,
      "count": 1299,
      "max": [
        0.9990599155426025,
        0.9999884963035583,
        0.9999309182167053,
        1.0
      ],
      "min": [
        -0.9998714923858643,
        -0.9999902844429016,
        -0.9999774098396301,
        -1.0
      ],
      "type": "VEC4"
    },
    {
      "bufferView": 1,
      "byteOffset": 7424,
      "componentType": 5126,
      "count": 1299,
      "max": [
        0.9061909914016724,
        0.9904969930648804
      ],
      "min": [
        0.016397999599575996,
        0.010015999898314476
      ],
      "type": "VEC2"
    },
    {
      "bufferView": 0,
      "byteOffset": 10512,
      "componentType": 5125,
      "count": 3234,
      "type": "SCALAR"
    },
    {
      "bufferView": 2,
      "byteOffset": 53448,
      "componentType": 5126,
      "count": 1074,
      "max": [
        3.1080169677734375,
        -1.621508002281189,
        8.996803283691406
      ],
      "min": [
        -2.978053092956543,
        -9.047316551208496,
        -0.260470986366272
      ],
      "type": "VEC3"
    },
    {
      "bufferView": 2,
      "byteOffset": 66336,
      "componentType": 5126,
      "count": 1074,
      "max": [
        0.9905017614364624,
        0.9644232392311096,
        0.9999697804450989
      ],
      "min": [
        -0.9909061193466187,
        -0.9856534600257874,
        -0.9999697804450989
      ],
      "type": "VEC3"
    },
    {
      "bufferView": 1,
      "byteOffset": 17816,
      "componentType": 5126,
      "count": 1074,
      "max": [
        0.9061909914016724,
        0.9904969930648804
      ],
      "min": [
        0.016397999599575996,
        0.010015999898314476
      ],
      "type": "VEC2"
    },
    {
      "bufferView": 0,
      "byteOffset": 23448,
      "componentType": 5125,
      "count": 2778,
      "type": "SCALAR"
    }
  ],
  "asset": {
    "extras": {
      "author": "katykate (https://sketchfab.com/katykate)",
      "license": "CC-BY-4.0 (http://creativecommons.org/licenses/by/4.0/)",
      "source": "https://sketchfab.com/3d-models/barrels-dd939d6e5f5d478ead53622ddaa120c7",
      "title": "Barrels"
    },
    "generator": "Sketchfab-12.67.0",
    "version": "2.0"
  },
  "bufferViews": [
    {
      "buffer": 0,
      "byteLength": 34560,
      "name": "floatBufferViews",
      "target": 34963
    },
    {
      "buffer": 0,
      "byteLength": 26408,
      "byteOffset": 34560,
      "byteStride": 8,
      "name": "floatBufferViews",
      "target": 34962
    },
    {
      "buffer": 0,
      "byteLength": 79224,
      "byteOffset": 60968,
      "byteStride": 12,
      "name": "floatBufferViews",
      "target": 34962
    },
    {
      "buffer": 0,
      "byteLength": 35632,
      "byteOffset": 140192,
      "byteStride": 16,
      "name": "floatBufferViews",
      "target": 34962
    }
  ],
  "buffers": [
    {
      "byteLength": 175824,
      "uri": "scene.bin"
    }
  ],
  "images": [
    {
      "uri": "textures/02___Default_baseColor.png"
    },
    {
      "uri": "textures/02___Default_metallicRoughness.png"
    },
    {
      "uri": "textures/02___Default_normal.png"
    },
    {
      "uri": "textures/03___Default_baseColor.png"
    },
    {
      "uri": "textures/03___Default_metallicRoughness.png"
    },
    {
      "uri": "textures/03___Default_normal.png"
    },
    {
      "uri": "textures/07___Default_baseColor.png"
    },
    {
      "uri": "textures/07___Default_metallicRoughness.png"
    }
  ],
  "materials": [
    {
      "doubleSided": true,
      "name": "02___Default",
      "normalTexture": {
        "index": 2
      },
      "pbrMetallicRoughness": {
        "baseColorTexture": {
          "index": 0
        },
        "metallicRoughnessTexture": {
          "index": 1
        }
      }
    },
    {
      "doubleSided": true,
      "name": "03___Default",
      "normalTexture": {
        "index": 5
      },
      "occlusionTexture": {
        "index": 4
      },
      "pbrMetallicRoughness": {
        "baseColorTexture": {
          "index": 3
        },
        "metallicFactor": 0.6175685975609756,
        "metallicRoughnessTexture": {
          "index": 4
        }
      }
    },
    {
      "doubleSided": true,
      "name": "07___Default",
      "pbrMetallicRoughness": {
        "baseColorTexture": {
          "index": 6
        },
        "metallicRoughnessTexture": {
          "index": 7
        }
      }
    }
  ],
  "meshes": [
    {
      "name": "Object_0",
      "primitives": [
        {
          "attributes": {
            "NORMAL": 1,
            "POSITION": 0,
            "TANGENT": 2,
            "TEXCOORD_0": 3
          },
          "indices": 4,
          "material": 0,
          "mode": 4
        }
      ]
    },
    {
      "name": "Object_1",
      "primitives": [
        {
          "attributes": {
            "NORMAL": 6,
            "POSITION": 5,
            "TANGENT": 7,
            "TEXCOORD_0": 8
          },
          "indices": 9,
          "material": 1,
          "mode": 4
        }
      ]
    },
    {
      "name": "Object_2",
      "primitives": [
        {
          "attributes": {
            "NORMAL": 11,
            "POSITION": 10,
            "TEXCOORD_0": 12
          },
          "indices": 13,
          "material": 2,
          "mode": 4
        }
      ]
    }
  ],
  "nodes": [
    {
      "children": [
        1
      ],
      "matrix": [
        1.0,
        0.0,
        0.0,
        0.0,
        0.0,
        2.220446049250313e-16,
        -1.0,
        0.0,
        0.0,
        1.0,
        2.220446049250313e-16,
        0.0,
        0.0,
        0.0,
        0.0,
        1.0
      ],
      "name": "Sketchfab_model"
    },
    {
      "children": [
        2,
        3,
        4
      ],
      "name": "082c34de36244f4383ffa91127100f93.obj.cleaner.materialmerger.gles"
    },
    {
      "mesh": 0,
      "name": "Object_2"
    },
    {
      "mesh": 1,
      "name": "Object_3"
    },
    {
      "mesh": 2,
      "name": "Object_4"
    }
  ],
  "samplers": [
    {
      "magFilter": 9729,
      "minFilter": 9987,
      "wrapS": 10497,
      "wrapT": 10497
    }
  ],
  "scene": 0,
  "scenes": [
    {
      "name": "Sketchfab_Scene",
      "nodes": [
        0
      ]
    }
  ],
  "textures": [
    {
      "sampler": 0,
      "source": 0
    },
    {
      "sampler": 0,
      "source": 1
    },
    {
      "sampler": 0,
      "source": 2
    },
    {
      "sampler": 0,
      "source": 3
    },
    {
      "sampler": 0,
      "source": 4
    },
    {
      "sampler": 0,
      "source": 5
    },
    {
      "sampler": 0,
      "source": 6
    },
    {
      "sampler": 0,
      "source": 7
    }
  ]
}
